Coordinates
version=1
nRows=16
nColumns=22
inDegrees=yes

Units are S.I. units (second, meters, Newtons, ...)
If the header above contains a line with 'inDegrees', this indicates whether rotational values are in degrees (yes) or radians (no).

endheader
time	pelvis_tilt	pelvis_list	pelvis_rotation	pelvis_tx	pelvis_ty	pelvis_tz	hip_flexion_r	hip_adduction_r	hip_rotation_r	knee_angle_r	ankle_angle_r	subtalar_angle_r	hip_flexion_l	hip_adduction_l	hip_rotation_l	knee_angle_l	ankle_angle_l	subtalar_angle_l	lumbar_extension	lumbar_bending	lumbar_rotation
      1.06000000	     -7.60217942	      6.22490129	    -24.15348464	     -0.99471768	      0.88364859	     -0.45028353	      5.74983503	     -3.24012222	    -10.58392869	    -13.91060358	     25.39398829	     -9.28185442	      7.77678021	      2.39785857	     -5.81073324	    -14.69485614	     21.56890878	     -6.57594860	     -8.11833055	     -7.51694081	      6.28265176
      1.07000000	     -7.80879282	      6.53861112	    -24.09682468	     -0.99224153	      0.88270703	     -0.45021733	      6.48217476	     -3.56783881	    -10.19573087	    -14.95502186	     25.61797722	     -9.54089983	      7.80687972	      2.69156789	     -5.81608974	    -14.43602324	     21.58095464	     -6.59950460	     -8.21159867	     -7.85761012	      6.55936995
      1.08000000	     -8.00070178	      6.85750903	    -24.06122039	     -0.98971371	      0.88176104	     -0.45009491	      7.34690398	     -3.91104724	     -9.67568258	    -16.27474961	     25.82758351	     -9.88909889	      7.80834083	      2.98952049	     -5.87243871	    -14.16258758	     21.59764676	     -6.59578457	     -8.31040623	     -8.21244943	      6.82352114
      1.09000000	     -8.17807978	      7.17755809	    -24.05076927	     -0.98714836	      0.88081591	     -0.44990929	      8.36436577	     -4.25793155	     -9.00933566	    -17.90601500	     26.01295732	    -10.34854293	      7.77643090	      3.28632264	     -5.98442433	    -13.86697099	     21.61943716	     -6.55366651	     -8.41755930	     -8.57386801	      7.07004518
      1.10000000	     -8.34926696	      7.49674573	    -24.05658210	     -0.98456515	      0.87985093	     -0.44966172	      9.56036531	     -4.58883735	     -8.17159436	    -19.88188482	     26.20453442	    -11.00689054	      7.72628040	      3.57582943	     -6.13031156	    -13.56185583	     21.66689313	     -6.45372051	     -8.52571212	     -8.93522980	      7.28429155
      1.11000000	     -8.50659112	      7.82215973	    -24.11024318	     -0.98194701	      0.87887801	     -0.44928650	     10.95563201	     -4.90156158	     -7.18135298	    -22.23800544	     26.25745461	    -11.59112363	      7.63340169	      3.86075767	     -6.39402788	    -13.21481505	     21.65620786	     -6.31899688	     -8.62549595	     -9.31031858	      7.50292941
      1.12000000	     -8.67135636	      8.16002536	    -24.17666255	     -0.97930910	      0.87782415	     -0.44883615	     12.56920459	     -5.16998703	     -6.01470148	    -24.96865496	     26.27779566	    -12.32521811	      7.54132220	      4.14393002	     -6.69383388	    -12.85898079	     21.67842434	     -6.11107336	     -8.69684228	     -9.68643697	      7.67558422
      1.13000000	     -8.83881132	      8.49829642	    -24.23808120	     -0.97659440	      0.87667629	     -0.44828871	     14.36890585	     -5.37091123	     -4.74171131	    -28.04043116	     26.26837628	    -13.24733292	      7.42363069	      4.41874041	     -6.98919742	    -12.47038393	     21.76104128	     -5.79627610	     -8.74082228	    -10.05242648	      7.80206192
      1.14000000	     -8.98710487	      8.84501001	    -24.31907730	     -0.97374676	      0.87545724	     -0.44759823	     16.31547373	     -5.51484244	     -3.41759926	    -31.40450064	     26.03984061	    -13.91981659	      7.26122243	      4.69516525	     -7.39288936	    -12.05481349	     21.80549239	     -5.46126995	     -8.76323256	    -10.42619503	      7.90561647
      1.15000000	     -9.11781014	      9.18600703	    -24.37067666	     -0.97070004	      0.87414285	     -0.44679552	     18.34549132	     -5.58441587	     -2.09651340	    -34.96929289	     25.71614337	    -14.55107345	      7.04863025	      4.96937169	     -7.78173339	    -11.61738647	     21.88286289	     -5.03206279	     -8.76831399	    -10.78589304	      7.91804058
      1.16000000	     -9.21306624	      9.50787148	    -24.38748498	     -0.96736539	      0.87276181	     -0.44587837	     20.38671885	     -5.59470657	     -0.86585967	    -38.64801439	     25.26222368	    -15.00380550	      6.75175704	      5.23971726	     -8.15829807	    -11.14556183	     21.97812823	     -4.54257578	     -8.77331871	    -11.11656678	      7.84500598
      1.17000000	     -9.28175922	      9.79672154	    -24.35155661	     -0.96369041	      0.87131119	     -0.44485850	     22.39633906	     -5.55456906	      0.20820798	    -42.35471550	     24.70517787	    -15.25610389	      6.37233010	      5.49258499	     -8.49621601	    -10.64408235	     22.10521171	     -3.98477667	     -8.77262317	    -11.39833955	      7.69307094
      1.18000000	     -9.30886650	     10.04382452	    -24.26605991	     -0.95966479	      0.86981646	     -0.44373636	     24.33118423	     -5.48620031	      1.10083455	    -46.03217303	     24.06958335	    -15.27574690	      5.91122126	      5.72637836	     -8.76868828	    -10.15109741	     22.25178374	     -3.38041725	     -8.78824141	    -11.62908086	      7.46741745
      1.19000000	     -9.31564439	     10.24653692	    -24.12846526	     -0.95523894	      0.86826381	     -0.44250277	     26.17864525	     -5.40889790	      1.77941638	    -49.61073659	     23.39838431	    -15.05009550	      5.37202321	      5.93126770	     -8.98116773	     -9.64047298	     22.43864796	     -2.72273968	     -8.79147540	    -11.79310274	      7.16207141
      1.20000000	     -9.29272807	     10.41144294	    -23.94752107	     -0.95047049	      0.86666738	     -0.44116378	     27.93416561	     -5.34910585	      2.26593108	    -53.06560552	     22.73614213	    -14.62186214	      4.77588647	      6.11421134	     -9.12015603	     -9.15602527	     22.63925736	     -2.06875700	     -8.80116487	    -11.90759657	      6.80456907
      1.21000000	     -9.24019306	     10.53256509	    -23.73267967	     -0.94536431	      0.86504750	     -0.43972188	     29.58498206	     -5.31344518	      2.58397674	    -56.35937475	     22.12964444	    -14.03058557	      4.11908854	      6.27177424	     -9.15065099	     -8.69512378	     22.87551759	     -1.42647682	     -8.82472644	    -11.96431013	      6.40246162
